<svg width="40" height="40" viewBox="0 0 40 40" fill="none" xmlns="http://www.w3.org/2000/svg">
<circle cx="20" cy="20" r="20" fill="black"/>
<path d="M19.6364 29H13.7216V11.5455H19.7557C21.4886 11.5455 22.9773 11.8949 24.2216 12.5938C25.4716 13.2869 26.4318 14.2841 27.1023 15.5852C27.7727 16.8864 28.108 18.4432 28.108 20.2557C28.108 22.0739 27.7699 23.6364 27.0938 24.9432C26.4233 26.25 25.4545 27.2528 24.1875 27.9517C22.9261 28.6506 21.4091 29 19.6364 29ZM16.8835 26.2642H19.483C20.6989 26.2642 21.7131 26.0426 22.5256 25.5994C23.3381 25.1506 23.9489 24.483 24.358 23.5966C24.767 22.7045 24.9716 21.5909 24.9716 20.2557C24.9716 18.9205 24.767 17.8125 24.358 16.9318C23.9489 16.0455 23.3438 15.3835 22.5426 14.946C21.7472 14.5028 20.7585 14.2812 19.5767 14.2812H16.8835V26.2642Z" fill="white"/>
</svg>
